<?xml version="1.0" standalone="no"?>
<!DOCTYPE svg PUBLIC "-//W3C//DTD SVG 20010904//EN"
 "http://www.w3.org/TR/2001/REC-SVG-20010904/DTD/svg10.dtd">
<svg version="1.0" xmlns="http://www.w3.org/2000/svg"
 width="508.000000pt" height="491.000000pt" viewBox="0 0 508.000000 491.000000"
 preserveAspectRatio="xMidYMid meet">

<g transform="translate(0.000000,491.000000) scale(0.100000,-0.100000)"
fill="#000000" stroke="none">
<path d="M2580 4377 l-35 -10 40 -7 c49 -8 81 -24 95 -50 12 -22 -2 -35 -26
-26 -9 3 -12 1 -9 -4 10 -16 -22 -11 -39 6 -9 8 -16 22 -16 30 0 11 -9 15 -27
13 -16 -1 -40 1 -55 5 -34 10 -66 -7 -74 -39 -7 -28 -14 -31 -31 -14 -7 7 -40
13 -75 15 -43 3 -58 1 -48 -6 9 -6 10 -10 3 -10 -6 0 -15 5 -18 10 -10 16 -63
12 -91 -7 -17 -11 -43 -15 -80 -14 -42 1 -61 -3 -81 -19 -14 -11 -32 -20 -39
-20 -31 0 -46 -31 -39 -83 8 -57 -1 -68 -51 -60 -27 4 -37 0 -58 -23 -15 -16
-36 -39 -49 -52 -23 -25 -46 -61 -47 -75 0 -7 27 23 58 63 2 3 10 -3 17 -13 9
-12 15 -15 20 -7 10 15 55 -27 55 -51 0 -45 -88 -87 -118 -57 -9 9 -12 7 -12
-10 0 -12 -4 -22 -10 -22 -19 0 -41 -59 -30 -79 17 -32 12 -46 -29 -89 -48
-51 -64 -116 -37 -157 9 -14 14 -30 11 -35 -3 -6 1 -10 9 -10 23 0 20 -26 -6
-52 -20 -20 -20 -23 -6 -49 10 -16 12 -31 7 -36 -6 -6 1 -24 16 -48 21 -30 24
-40 13 -46 -11 -7 -11 -11 0 -17 19 -12 40 -91 52 -191 6 -47 19 -117 29 -156
10 -38 22 -90 25 -114 4 -26 18 -58 36 -79 26 -31 28 -38 14 -45 -10 -6 -21
-3 -33 7 -29 26 -51 20 -48 -11 2 -16 7 -36 12 -46 4 -10 3 -29 -4 -43 -13
-29 -15 -107 -2 -84 5 8 14 38 21 67 6 29 19 54 27 57 22 9 26 1 14 -22 -15
-28 -14 -155 1 -170 7 -7 19 -12 28 -12 23 0 39 -33 38 -78 0 -22 3 -45 6 -51
4 -6 -3 -15 -15 -20 -23 -8 -23 -8 6 -22 32 -15 35 -25 48 -184 3 -33 22 -121
42 -196 34 -124 41 -140 81 -183 24 -27 44 -52 44 -57 0 -5 4 -9 9 -9 12 0 24
-36 25 -70 1 -15 6 -24 15 -22 21 4 52 -9 45 -19 -3 -6 2 -9 12 -7 12 2 23 -5
28 -18 6 -12 24 -26 42 -32 29 -9 31 -8 26 12 -5 21 -5 21 20 -2 21 -19 31
-21 84 -16 41 4 72 1 102 -10 23 -8 42 -11 42 -6 0 6 15 10 33 10 18 0 38 5
43 10 7 7 25 8 52 1 24 -5 39 -5 36 0 -3 5 2 9 11 9 9 0 14 4 10 9 -5 9 48 31
83 34 10 0 19 8 18 17 -1 9 6 14 17 12 10 -2 16 3 15 10 -2 8 4 12 15 10 9 -2
17 3 17 10 1 7 25 29 55 48 43 27 55 41 55 61 0 16 10 33 28 46 15 11 37 41
50 66 13 26 27 47 32 47 4 0 11 17 15 38 4 20 11 42 17 49 5 7 8 18 5 25 -3 7
-13 -5 -24 -27 -34 -73 -74 -127 -88 -121 -8 3 -21 -1 -29 -9 -11 -11 -16 -12
-19 -2 -3 7 -11 -1 -18 -18 -19 -41 -52 -44 -71 -6 -12 26 -15 27 -28 12 -8
-8 -15 -18 -15 -21 0 -3 -3 -4 -7 -2 -5 1 -8 -5 -8 -13 0 -8 -4 -15 -10 -15
-5 0 -10 -7 -10 -15 0 -8 -6 -15 -14 -15 -7 0 -19 -6 -25 -14 -8 -10 -26 -13
-52 -11 -31 3 -39 0 -39 -13 0 -13 -2 -13 -14 3 -12 16 -18 18 -48 8 -31 -9
-36 -8 -47 10 -8 11 -16 16 -20 10 -13 -20 -37 -20 -66 2 -44 32 -62 36 -70
17 -4 -10 -9 -13 -13 -6 -7 10 -23 14 -67 15 -27 0 -75 54 -75 85 0 17 -6 24
-19 24 -11 0 -21 9 -25 24 -3 13 -15 26 -26 29 -20 5 -28 27 -10 27 14 0 12
30 -4 61 -11 21 -11 29 0 43 7 10 10 24 8 31 -3 7 4 15 16 18 13 3 19 10 15
16 -3 6 -11 9 -16 6 -5 -4 -9 -1 -9 5 0 21 -20 -1 -21 -23 0 -12 -3 -16 -6 -9
-2 6 -14 12 -25 12 -11 0 -22 8 -25 20 -6 22 -12 23 -65 11 -22 -5 -36 -5 -32
0 3 5 0 9 -5 9 -6 0 -11 7 -11 17 0 9 -3 13 -7 9 -5 -4 -8 -12 -8 -18 0 -6 -8
-12 -17 -14 -12 -1 -18 5 -18 19 0 82 -31 256 -65 372 -37 127 -48 230 -43
385 4 113 9 142 27 178 26 51 35 111 33 219 -2 91 9 133 34 133 10 0 14 5 11
14 -4 10 11 25 45 46 27 17 53 29 56 26 3 -3 13 4 23 15 12 14 24 19 38 14 14
-4 23 0 30 14 6 11 21 23 33 27 12 3 44 21 73 39 50 32 77 36 125 18 8 -4 18
-5 23 -5 4 1 27 -2 52 -8 49 -11 94 3 147 48 8 6 17 9 20 6 4 -3 19 1 36 10
25 13 32 13 48 1 14 -10 22 -10 32 -2 10 8 16 7 21 -1 4 -7 15 -10 24 -6 11 4
19 0 23 -10 3 -9 15 -16 25 -16 10 0 19 -5 19 -12 0 -6 3 -9 6 -6 8 9 95 -22
89 -31 -2 -5 6 -13 18 -18 49 -24 95 -43 102 -43 4 0 23 -13 42 -30 18 -16 38
-30 44 -30 6 0 8 -4 5 -9 -5 -8 17 -23 37 -25 4 -1 23 -19 43 -41 40 -44 40
-50 15 -229 -6 -48 -6 -77 1 -95 6 -14 14 -99 17 -187 l6 -161 25 10 c21 9 22
11 7 14 -12 3 -16 10 -13 20 3 8 9 33 12 56 3 23 21 120 40 214 28 138 40 182
64 220 17 26 30 56 30 67 0 25 39 106 51 106 5 0 7 11 3 24 -10 41 6 51 28 19
l20 -28 -7 30 c-4 17 -13 37 -21 46 -16 18 -19 49 -3 49 5 0 7 -5 3 -12 -5 -7
-3 -8 5 -4 7 5 21 0 32 -10 10 -9 19 -14 19 -10 0 4 9 2 20 -4 39 -21 19 -1
-32 31 -29 19 -55 37 -56 41 -2 5 -9 6 -15 2 -7 -3 -5 1 4 8 15 12 15 17 4 38
-18 34 -12 73 18 112 18 25 26 51 31 104 l7 71 -45 46 c-24 26 -50 47 -57 47
-8 0 -6 -7 6 -20 17 -19 17 -20 -1 -26 -11 -4 -23 -9 -27 -12 -5 -2 -7 2 -6 9
3 21 -12 50 -22 43 -5 -3 -9 2 -9 10 0 12 -10 16 -36 16 l-35 0 1 53 c2 75 2
77 -19 77 -10 0 -22 7 -25 16 -8 22 -9 22 20 16 24 -4 25 -3 13 17 -15 23 -35
28 -41 10 -2 -7 -13 -9 -26 -5 -12 4 -20 12 -17 17 4 5 -2 9 -12 9 -10 0 -27
7 -37 15 -10 8 -23 12 -27 9 -5 -3 -9 0 -9 6 0 6 -5 8 -10 5 -6 -3 -14 5 -20
19 -9 25 -30 36 -30 16 0 -5 -9 -10 -20 -10 -11 0 -20 4 -20 9 0 15 -82 31
-140 28 -36 -2 -73 3 -106 15 -43 16 -56 17 -79 6 -23 -10 -28 -10 -36 4 -8
15 -71 59 -80 57 -2 0 -20 -6 -39 -12z m-520 -127 c0 -5 -5 -10 -11 -10 -5 0
-7 5 -4 10 3 6 8 10 11 10 2 0 4 -4 4 -10z m1066 -4 c16 -17 18 -26 4 -26 -5
0 -14 9 -20 20 -12 23 -5 26 16 6z m-196 -6 c0 -5 -2 -10 -4 -10 -3 0 -8 5
-11 10 -3 6 -1 10 4 10 6 0 11 -4 11 -10z m-910 -87 c0 -7 -9 -13 -20 -13 -11
0 -20 -4 -20 -10 0 -5 -7 -10 -15 -10 -10 0 -15 10 -15 34 0 28 4 35 23 38 23
4 47 -16 47 -39z m-134 -89 c61 -41 42 -86 -28 -62 -43 14 -42 12 -23 47 18
36 18 36 51 15z m1600 -158 c11 -11 12 -21 4 -41 -5 -14 -14 -23 -20 -20 -5 3
-10 1 -10 -4 0 -6 -5 -11 -11 -11 -8 0 -9 12 -4 37 10 57 16 63 41 39z m44
-161 c-15 -28 -30 -33 -30 -10 0 8 7 15 15 15 8 0 14 3 14 8 -3 15 1 25 8 19
3 -4 0 -18 -7 -32z m-1653 -1297 c-3 -7 -5 -2 -5 12 0 14 2 19 5 13 2 -7 2
-19 0 -25z m253 -429 c0 -11 -6 -27 -14 -35 -13 -12 -15 -11 -21 6 -7 21 9 50
26 50 5 0 9 -9 9 -21z m-46 -55 c3 -8 2 -12 -4 -9 -6 3 -10 1 -10 -6 0 -7 -2
-10 -5 -7 -5 5 4 38 10 38 2 0 6 -7 9 -16z m281 -534 c3 -5 1 -10 -4 -10 -6 0
-11 5 -11 10 0 6 2 10 4 10 3 0 8 -4 11 -10z"/>
<path d="M3641 3424 c0 -11 3 -14 6 -6 3 7 2 16 -1 19 -3 4 -6 -2 -5 -13z"/>
<path d="M2167 3033 c-3 -2 -27 -5 -53 -5 -39 0 -52 -5 -80 -32 -19 -18 -40
-49 -49 -69 -8 -19 -19 -38 -25 -42 -5 -3 -10 -14 -10 -23 0 -15 2 -15 10 -2
8 13 10 13 10 -1 0 -9 -3 -19 -7 -23 -17 -17 -11 -45 15 -62 15 -10 29 -19 32
-20 23 -5 38 -18 33 -30 -4 -10 3 -14 26 -14 17 0 31 -5 31 -10 0 -29 46 -58
100 -63 30 -3 63 -9 73 -12 9 -4 30 -3 45 3 15 6 36 13 47 18 11 4 29 9 40 10
59 11 64 14 84 69 12 30 24 73 27 95 4 22 10 40 14 40 20 0 16 43 -6 69 -14
17 -22 36 -18 45 3 9 1 17 -5 17 -6 1 -14 2 -18 4 -40 11 -66 15 -114 19 -30
3 -66 9 -80 14 -26 10 -114 13 -122 5z m165 -265 c-35 -14 -43 -9 -26 17 15
24 17 24 30 8 10 -15 10 -19 -4 -25z"/>
<path d="M2846 3013 c-1 -1 -24 -3 -51 -4 -77 -3 -112 -51 -83 -114 6 -14 15
-25 20 -25 4 0 5 -15 2 -32 -13 -67 1 -103 31 -78 13 10 15 9 15 -8 0 -11 8
-22 20 -25 11 -3 20 -14 20 -25 0 -11 6 -25 14 -31 21 -17 86 -26 86 -12 0 8
13 9 41 5 30 -5 43 -3 50 7 4 8 14 14 21 15 28 2 98 40 98 52 0 18 -30 64 -54
84 -11 9 -17 20 -12 25 4 4 23 -10 42 -32 37 -44 44 -36 17 19 -11 21 -23 34
-31 31 -7 -3 -11 -1 -7 4 3 5 -9 13 -27 17 -18 4 -28 9 -21 11 20 7 111 -40
116 -59 3 -11 15 -18 30 -18 14 0 28 -6 30 -12 3 -7 6 12 6 44 1 51 -3 61 -39
107 -30 37 -48 51 -68 52 -47 3 -263 4 -266 2z m204 -249 c0 -13 -4 -24 -9
-24 -5 0 -17 -3 -26 -6 -14 -6 -14 -3 1 29 19 39 34 40 34 1z"/>
<path d="M3347 2573 c3 -38 8 -83 12 -102 l6 -33 23 44 c13 28 22 64 22 92 0
41 -3 48 -26 56 -42 16 -44 13 -37 -57z"/>
<path d="M3270 2508 c0 -7 -3 -31 -6 -53 -5 -27 -3 -37 4 -30 12 12 21 95 10
95 -5 0 -8 -6 -8 -12z"/>
<path d="M3250 2384 c0 -8 6 -14 14 -14 7 0 19 6 25 14 9 11 6 14 -14 14 -15
0 -25 -6 -25 -14z"/>
<path d="M2356 2353 c-7 -30 6 -73 22 -73 16 -1 41 -28 47 -52 6 -22 2 -27
-27 -38 -48 -18 -61 -22 -84 -21 -26 1 -59 -66 -51 -101 4 -15 -1 -36 -13 -56
-26 -43 -26 -43 14 -27 34 15 66 11 66 -6 0 -5 9 -9 21 -9 11 0 32 -9 46 -20
14 -11 32 -20 41 -20 11 0 13 -9 9 -40 -3 -23 -1 -38 4 -34 15 9 10 -8 -8 -28
-15 -17 -15 -18 5 -18 11 0 24 -5 27 -10 4 -6 16 -8 27 -4 16 5 19 3 14 -14
-5 -14 -1 -21 13 -25 13 -3 21 1 24 14 5 20 34 17 49 -5 4 -6 13 -5 24 5 9 8
27 13 38 11 19 -2 19 -2 3 8 -23 15 -8 42 26 46 20 2 25 -1 20 -14 -4 -14 -3
-14 5 -3 12 17 5 41 -12 41 -6 0 -17 10 -25 22 -12 19 -11 23 5 35 16 11 17
17 6 33 -10 17 -10 20 5 20 9 0 25 8 35 17 16 14 21 15 27 4 7 -11 16 -11 45
-1 30 10 40 9 68 -7 18 -10 34 -21 36 -25 2 -4 11 -1 19 8 14 13 14 16 -3 29
-14 10 -16 17 -8 25 20 20 -2 92 -38 123 -18 15 -38 27 -45 27 -7 0 -13 5 -13
10 0 6 -6 10 -14 10 -7 0 -26 16 -41 36 -25 33 -26 38 -11 46 20 11 20 22 0
43 -19 18 -45 13 -87 -17 -27 -18 -30 -19 -62 -4 -18 9 -38 16 -45 16 -7 0
-26 12 -43 26 -25 21 -37 24 -66 19 -20 -4 -39 -11 -42 -17 -9 -14 -29 -1 -38
26 -8 19 -9 18 -15 -11z m314 -93 c-6 -11 -15 -20 -20 -20 -14 0 -12 27 3 33
23 10 28 7 17 -13z m64 -151 c9 -8 -51 -27 -99 -30 -32 -1 -95 20 -95 33 0 5
27 7 60 6 32 -1 62 1 66 5 8 8 55 -2 68 -14z m66 -29 c0 -5 -2 -10 -4 -10 -3
0 -8 5 -11 10 -3 6 -1 10 4 10 6 0 11 -4 11 -10z m-225 -110 c-3 -5 -14 -10
-23 -10 -15 0 -15 2 -2 10 20 13 33 13 25 0z m12 -166 c-3 -3 -12 -4 -19 -1
-8 3 -5 6 6 6 11 1 17 -2 13 -5z"/>
<path d="M3227 2291 c-17 -69 -22 -130 -11 -118 8 7 36 178 31 183 -2 2 -11
-27 -20 -65z"/>
<path d="M3185 2005 c-10 -41 -16 -78 -13 -80 3 -3 13 29 23 70 10 42 15 78
13 81 -3 3 -13 -29 -23 -71z"/>
<path d="M3035 1940 c-3 -5 1 -20 9 -31 13 -19 13 -23 0 -37 -16 -16 -12 -28
6 -17 21 13 31 54 17 75 -13 22 -23 25 -32 10z"/>
<path d="M3121 1914 c0 -6 -11 -16 -23 -23 l-23 -11 24 6 c20 5 23 3 17 -12
-5 -14 -4 -16 4 -8 7 7 10 22 7 35 -2 13 -5 19 -6 13z"/>
<path d="M1850 1499 c-21 -9 -247 -59 -264 -59 -3 0 -17 -23 -32 -51 -16 -32
-34 -53 -47 -57 -12 -3 -74 -32 -137 -64 -63 -33 -162 -80 -220 -105 -196 -85
-420 -206 -538 -290 -87 -62 -235 -211 -313 -316 -62 -82 -159 -237 -256 -407
-30 -52 -43 -86 -43 -112 l0 -38 2069 0 2069 0 33 43 c50 63 77 85 151 122 37
18 80 42 95 53 15 11 43 23 61 27 17 3 32 11 32 17 0 6 -22 38 -48 72 -54 69
-172 257 -172 275 0 63 -402 338 -815 556 -49 27 -135 76 -190 111 -56 34
-112 68 -127 74 -15 7 -35 32 -49 63 -35 74 -52 74 -45 1 3 -33 6 -63 7 -69 1
-5 -4 -45 -10 -88 -8 -60 -19 -89 -42 -124 -39 -55 -119 -134 -130 -128 -4 3
-13 -4 -19 -15 -6 -11 -17 -20 -25 -20 -8 0 -15 -5 -15 -11 0 -5 -17 -17 -37
-26 -30 -13 -78 -18 -221 -20 -101 -1 -209 -7 -240 -13 -83 -15 -192 -13 -227
6 -36 19 -175 154 -175 171 0 7 -16 29 -35 49 -19 19 -35 42 -35 50 0 8 -6 25
-14 37 -8 12 -19 46 -25 75 -15 70 3 112 72 174 l52 48 -35 -1 c-19 0 -46 -5
-60 -10z m-70 -85 c0 -8 -5 -12 -10 -9 -6 4 -8 11 -5 16 9 14 15 11 15 -7z
m-30 -34 c0 -5 -7 -10 -15 -10 -8 0 -15 5 -15 10 0 6 7 10 15 10 8 0 15 -4 15
-10z m39 -50 c0 -9 -4 -8 -9 5 -5 11 -9 27 -9 35 0 9 4 8 9 -5 5 -11 9 -27 9
-35z m20 -65 l0 -20 -9 20 c-5 11 -9 27 -9 35 -1 13 0 13 9 0 5 -8 9 -24 9
-35z m15 -41 c3 -8 2 -12 -4 -9 -6 3 -10 10 -10 16 0 14 7 11 14 -7z"/>
<path d="M2166 1455 c4 -8 13 -15 21 -15 8 0 17 -9 20 -19 3 -11 14 -22 25
-24 18 -5 16 -1 -8 24 -37 39 -66 56 -58 34z"/>
<path d="M2235 1370 c4 -6 11 -8 16 -5 14 9 11 15 -7 15 -8 0 -12 -5 -9 -10z"/>
</g>
</svg>
