<?xml version="1.0" standalone="no"?>
<!DOCTYPE svg PUBLIC "-//W3C//DTD SVG 20010904//EN"
 "http://www.w3.org/TR/2001/REC-SVG-20010904/DTD/svg10.dtd">
<svg version="1.0" xmlns="http://www.w3.org/2000/svg"
 width="512.000000pt" height="512.000000pt" viewBox="0 0 512.000000 512.000000"
 preserveAspectRatio="xMidYMid meet">

<g transform="translate(0.000000,512.000000) scale(0.100000,-0.100000)"
fill="#000000" stroke="none">
<path d="M305 4775 l-25 -24 0 -2351 0 -2351 25 -24 24 -25 1631 0 1631 0 24
25 25 24 0 2351 0 2351 -25 24 -24 25 -376 0 -375 0 0 -107 c-1 -98 -6 -128
-35 -195 -7 -17 8 -18 234 -18 228 0 242 -1 261 -20 20 -20 20 -33 20 -2060 0
-2027 0 -2040 -20 -2060 -20 -20 -33 -20 -1338 -20 l-1319 0 -21 23 -22 23 0
2035 0 2036 23 21 c23 21 31 22 260 22 130 0 237 1 237 3 0 1 -9 26 -20 55
-15 40 -20 76 -20 157 l0 105 -375 0 -376 0 -24 -25z"/>
<path d="M4135 4306 c-73 -33 -95 -83 -95 -212 l0 -94 161 0 161 0 -4 103 c-5
114 -18 152 -69 188 -39 27 -112 35 -154 15z"/>
<path d="M1186 3888 c-9 -12 -16 -34 -16 -48 0 -14 7 -36 16 -48 l15 -22 758
0 c747 0 758 0 776 20 10 11 18 34 18 50 0 16 -8 39 -18 50 -18 20 -29 20
-776 20 l-758 0 -15 -22z"/>
<path d="M3945 3593 c-56 -14 -76 -91 -34 -129 20 -18 43 -19 363 -22 187 -1
351 -4 363 -7 51 -12 53 -31 53 -488 0 -404 1 -425 19 -441 27 -25 78 -24 104
3 22 22 22 22 22 469 0 439 0 448 -22 487 -27 51 -67 89 -118 112 -36 16 -77
18 -385 20 -190 1 -354 -1 -365 -4z"/>
<path d="M1550 3275 l-305 -305 -146 145 c-122 122 -150 145 -176 145 -38 0
-73 -36 -73 -75 0 -25 29 -58 178 -207 162 -163 181 -178 213 -178 32 0 57 23
372 338 303 303 337 341 337 370 0 40 -30 72 -68 72 -22 0 -80 -52 -332 -305z"/>
<path d="M2146 2928 c-9 -12 -16 -34 -16 -48 0 -14 7 -36 16 -48 l15 -22 358
0 c346 0 359 1 376 20 10 11 18 34 18 50 0 16 -8 39 -18 50 -17 19 -30 20
-376 20 l-358 0 -15 -22z"/>
<path d="M1658 2438 c-107 -106 -244 -242 -306 -302 l-112 -110 -143 142
c-121 119 -148 142 -174 142 -37 0 -73 -36 -73 -73 0 -22 35 -63 177 -207 163
-165 181 -180 213 -180 32 0 58 23 372 338 305 304 338 341 338 370 0 40 -30
72 -69 72 -24 0 -60 -31 -223 -192z"/>
<path d="M2146 2608 c-9 -12 -16 -34 -16 -48 0 -14 7 -36 16 -48 l15 -22 358
0 c346 0 359 1 376 20 10 11 18 34 18 50 0 16 -8 39 -18 50 -17 19 -30 20
-376 20 l-358 0 -15 -22z"/>
<path d="M2150 1970 c-27 -27 -26 -81 1 -106 20 -18 41 -19 370 -19 345 0 349
0 370 22 27 27 29 75 4 103 -17 19 -30 20 -372 20 -340 0 -354 -1 -373 -20z"/>
<path d="M2150 1650 c-27 -27 -26 -81 1 -106 20 -18 41 -19 370 -19 345 0 349
0 370 22 27 27 29 75 4 103 -17 19 -30 20 -372 20 -340 0 -354 -1 -373 -20z"/>
<path d="M4040 939 c0 -191 2 -203 50 -254 28 -29 29 -33 32 -163 3 -132 3
-134 31 -158 35 -30 59 -30 94 0 28 24 28 25 32 162 3 125 5 140 23 153 11 7
29 32 39 55 16 35 19 67 19 214 l0 172 -160 0 -160 0 0 -181z"/>
<path d="M2150 1010 c-27 -27 -26 -81 1 -106 20 -18 41 -19 370 -19 345 0 349
0 370 22 27 27 29 75 4 103 -17 19 -30 20 -372 20 -340 0 -354 -1 -373 -20z"/>
<path d="M2150 690 c-27 -27 -26 -81 1 -106 20 -18 41 -19 370 -19 345 0 349
0 370 22 27 27 29 75 4 103 -17 19 -30 20 -372 20 -340 0 -354 -1 -373 -20z"/>
</g>
</svg>
